<?xml version="1.0" encoding="UTF-8" standalone="no"?>
<svg
   xmlns:dc="http://purl.org/dc/elements/1.1/"
   xmlns:cc="http://creativecommons.org/ns#"
   xmlns:rdf="http://www.w3.org/1999/02/22-rdf-syntax-ns#"
   xmlns:svg="http://www.w3.org/2000/svg"
   xmlns="http://www.w3.org/2000/svg"
   xmlns:sodipodi="http://sodipodi.sourceforge.net/DTD/sodipodi-0.dtd"
   xmlns:inkscape="http://www.inkscape.org/namespaces/inkscape"
   viewBox="0 0 296.59 438.87"
   version="1.1"
   id="svg16"
   sodipodi:docname="bac-si.svg"
   inkscape:version="0.92.3 (2405546, 2018-03-11)">
  <metadata
     id="metadata22">
    <rdf:RDF>
      <cc:Work
         rdf:about="">
        <dc:format>image/svg+xml</dc:format>
        <dc:type
           rdf:resource="http://purl.org/dc/dcmitype/StillImage" />
        <dc:title></dc:title>
      </cc:Work>
    </rdf:RDF>
  </metadata>
  <defs
     id="defs20">
    <clipPath
       clipPathUnits="userSpaceOnUse"
       id="clipPath852">
      <rect
         style="opacity:1;vector-effect:none;fill:#45c3d3;fill-opacity:1;stroke:none;stroke-width:0.34135196;stroke-linecap:butt;stroke-linejoin:miter;stroke-miterlimit:4;stroke-dasharray:none;stroke-dashoffset:0;stroke-opacity:1;paint-order:markers stroke fill"
         id="rect854"
         width="190.61092"
         height="111.11221"
         x="-269.17981"
         y="259.88171" />
    </clipPath>
    <clipPath
       clipPathUnits="userSpaceOnUse"
       id="clipPath858">
      <rect
         style="opacity:1;vector-effect:none;fill:#45c3d3;fill-opacity:1;stroke:none;stroke-width:0.19911742;stroke-linecap:butt;stroke-linejoin:miter;stroke-miterlimit:4;stroke-dasharray:none;stroke-dashoffset:0;stroke-opacity:1;paint-order:markers stroke fill"
         id="rect860"
         width="26.499563"
         height="78.103981"
         x="-222.22444"
         y="281.2673" />
    </clipPath>
    <clipPath
       clipPathUnits="userSpaceOnUse"
       id="clipPath858-6">
      <rect
         style="opacity:1;vector-effect:none;fill:#45c3d3;fill-opacity:1;stroke:none;stroke-width:0.19911742;stroke-linecap:butt;stroke-linejoin:miter;stroke-miterlimit:4;stroke-dasharray:none;stroke-dashoffset:0;stroke-opacity:1;paint-order:markers stroke fill"
         id="rect860-7"
         width="26.499563"
         height="78.103981"
         x="-222.22444"
         y="281.2673" />
    </clipPath>
    <clipPath
       clipPathUnits="userSpaceOnUse"
       id="clipPath887">
      <rect
         style="opacity:1;vector-effect:none;fill:#45c3d3;fill-opacity:1;stroke:none;stroke-width:0.34135196;stroke-linecap:butt;stroke-linejoin:miter;stroke-miterlimit:4;stroke-dasharray:none;stroke-dashoffset:0;stroke-opacity:1;paint-order:markers stroke fill"
         id="rect889"
         width="86.007362"
         height="48.814987"
         x="173.64192"
         y="266.39035"
         transform="scale(-1,1)" />
    </clipPath>
    <clipPath
       clipPathUnits="userSpaceOnUse"
       id="clipPath893">
      <rect
         style="opacity:1;vector-effect:none;fill:#45c3d3;fill-opacity:1;stroke:none;stroke-width:0.34135196;stroke-linecap:butt;stroke-linejoin:miter;stroke-miterlimit:4;stroke-dasharray:none;stroke-dashoffset:0;stroke-opacity:1;paint-order:markers stroke fill"
         id="rect895"
         width="75.314552"
         height="32.078423"
         x="172.71211"
         y="284.05673"
         transform="scale(-1,1)" />
    </clipPath>
    <clipPath
       clipPathUnits="userSpaceOnUse"
       id="clipPath899">
      <rect
         style="opacity:1;vector-effect:none;fill:#45c3d3;fill-opacity:1;stroke:none;stroke-width:0.34135196;stroke-linecap:butt;stroke-linejoin:miter;stroke-miterlimit:4;stroke-dasharray:none;stroke-dashoffset:0;stroke-opacity:1;paint-order:markers stroke fill"
         id="rect901"
         width="70.200592"
         height="27.429373"
         x="172.71211"
         y="284.05673"
         transform="scale(-1,1)" />
    </clipPath>
  </defs>
  <sodipodi:namedview
     pagecolor="#ffffff"
     bordercolor="#666666"
     borderopacity="1"
     objecttolerance="10"
     gridtolerance="10"
     guidetolerance="10"
     inkscape:pageopacity="0"
     inkscape:pageshadow="2"
     inkscape:window-width="1853"
     inkscape:window-height="1025"
     id="namedview18"
     showgrid="false"
     inkscape:zoom="1.0754893"
     inkscape:cx="61.438225"
     inkscape:cy="327.84437"
     inkscape:window-x="67"
     inkscape:window-y="27"
     inkscape:window-maximized="1"
     inkscape:current-layer="support_computer_help_communication_call_operator_phone_service_center_assistant" />
  <g
     id="support_computer_help_communication_call_operator_phone_service_center_assistant"
     data-name="support, computer, help, communication, call, operator, phone, service, center, assistant">
    <path
       inkscape:connector-curvature="0"
       id="path4"
       d="m 223,325.49 a 5.36,5.36 0 0 0 -7.36,-1.81 L 189,339.84 a 5.41,5.41 0 0 0 -2.47,3.51 5.34,5.34 0 0 0 0.89,4.19 L 204.11,371 c -6.26,7.24 -24.64,26.27 -55.81,40.58 C 117.25,397.32 98.77,378.24 92.49,371 l 16.74,-23.45 a 5.38,5.38 0 0 0 -1.59,-7.7 L 81,323.68 a 5.3619609,5.3619609 0 1 0 -5.56,9.17 L 97.14,346 81.38,368.1 a 5.34,5.34 0 0 0 0.05,6.29 c 0.86,1.17 21.59,28.84 64.69,48 a 5.37,5.37 0 0 0 2.18,0.46 5.29,5.29 0 0 0 2.17,-0.46 c 43.1,-19.12 63.83,-46.79 64.69,-48 a 5.34,5.34 0 0 0 0.05,-6.29 l -15.76,-22.1 21.7,-13.16 a 5.35,5.35 0 0 0 1.85,-7.35 z" />
    <path
       inkscape:connector-curvature="0"
       id="path6"
       d="m 0,433.51 a 5.36,5.36 0 0 0 5.36,5.36 h 285.87 a 5.36,5.36 0 0 0 5.36,-5.36 v -10 a 145.74,145.74 0 0 0 -70.92,-125.11 5.361905,5.361905 0 0 0 -5.51,9.2 135.88,135.88 0 0 1 65.71,115.93 v 4.61 H 10.72 v -4.61 A 135.17,135.17 0 0 1 81,305 5.3615669,5.3615669 0 0 0 75.84,295.6 145.88,145.88 0 0 0 0,423.53 Z" />
    <path
       inkscape:connector-curvature="0"
       id="path8"
       d="M 148.3,0 A 108.82,108.82 0 0 0 39.61,108.69 v 104.62 a 29.85,29.85 0 0 0 29.82,29.82 h 13.38 a 5.36,5.36 0 1 0 0,-10.72 H 69.43 a 19.12,19.12 0 0 1 -19.1,-19.1 V 108.69 a 98,98 0 0 1 195.85,-4.15 5.36,5.36 0 0 0 10.71,-0.45 A 108.39,108.39 0 0 0 148.3,0 Z" />
    <path
       inkscape:connector-curvature="0"
       id="path10"
       d="m 257,148.48 v -8.37 C 256.989,126.91334 246.29665,116.21654 233.1,116.2 H 223 c -0.62218,-0.24057 -1.28294,-0.36594 -1.95,-0.37 -63.44,0 -80.92,-46.62 -81.62,-48.59 -0.75321,-2.122129 -2.74836,-3.550654 -5,-3.58 v 0 c -2.24231,0.02031 -4.23592,1.431792 -5,3.54 -14.91,40.93 -48.43,48.44 -49.82,48.73 -2.49331,0.51685 -4.280847,2.71368 -4.28,5.26 v 46.39 c 0.03256,26.7103 14.159176,51.42048 37.16,65 v 37.62 c -0.004,2.76021 -0.92612,5.44066 -2.62,7.62 l -4.18,5.38 c -5.42552,7.01698 -6.383775,16.51032 -2.47,24.47 L 143.49,389 c 1.96726,3.97973 7.64274,3.97973 9.61,0 l 40.28,-81.28 c 2.60054,-5.22301 3.11887,-11.23916 1.45,-16.83 -2.2101,-6.45957 -11.89109,-3.63438 -10.28,3 0.88692,2.99075 0.60823,6.20643 -0.78,9 L 148.3,374.5 112.82,302.91 c -2.09872,-4.27184 -1.58273,-9.36579 1.33,-13.13 l 4.18,-5.38 c 3.15779,-4.06043 4.87465,-9.0562 4.88,-14.2 v -32.34 c 47.65383,18.77639 99.77307,-14.35222 103,-65.47 h 6.83 c 13.22008,0.0166 23.94896,-10.68991 23.96,-23.91 z M 215.7,167 v 0.55 c 0.0353,47.6689 -49.67074,79.06361 -92.7,58.55 -3.05079,-1.54465 -4.39194,-2.0419 -6.69,-3.75 C 97.483774,210.4854 86.059716,189.79298 86.05,167.54 v -42.29 c 9.79,-3.16 33.9,-13.69 48.73,-43.53 3.80864,6.256982 8.36186,12.0291 13.56,17.19 12.08,12 33.4,26.17 67.36,27.53 z m 30.56,-18.55 c 0,7.28073 -5.89927,13.18448 -13.18,13.19 h -6.66 v -34.71 h 6.66 c 7.27683,0.006 13.17449,5.90317 13.18,13.18 z"
       sodipodi:nodetypes="ccccccccccccccccccccccccccccccccccccccccccscccccs" />
    <g
       id="g905"
       transform="translate(370.20835,5.4497366)">
      <path
         transform="matrix(-1,0,0,1,-396.20206,-45.364026)"
         clip-path="url(#clipPath858)"
         sodipodi:nodetypes="cccccccccccccccccccccccccccccccccccccccccccscccccs"
         d="m -65.643927,188.58423 v -8.37 c -0.01102,-13.19666 -10.703348,-23.89346 -23.9,-23.91 h -10.1 c -0.622183,-0.24057 -1.282943,-0.36594 -1.950003,-0.37 -63.44,0 -80.91999,-46.62 -81.61999,-48.59 -0.75321,-2.12213 -2.74836,-3.55065 -5,-3.58 v 0 c -2.24231,0.0203 -4.23592,1.43179 -5,3.54 -14.91,40.93 -48.43,48.44 -49.82,48.73 -2.49331,0.51685 -4.28085,2.71368 -4.28,5.26 v 46.39 c 0.0326,26.7103 14.15918,51.42048 37.16,65 v 37.62 c -0.005,2.76021 -0.92612,5.44066 -2.62,7.62 l -4.18,5.38 c -5.42552,7.01698 -6.38378,16.51032 -2.47,24.47 l 40.27,81.33 c 1.96726,3.97972 7.64273,3.97972 9.60999,0 l 40.28,-81.28 c 2.60054,-5.22301 3.11887,-11.23916 1.45,-16.83 -2.2101,-6.45957 -11.89109,-3.63438 -10.28,3 0.88692,2.99075 0.60823,6.20643 -0.78,9 l -35.47,71.61 -35.47999,-71.59 c -2.09872,-4.27184 -1.58273,-9.36579 1.33,-13.13 l 4.18,-5.38 c 3.15779,-4.06043 4.87465,-9.0562 4.88,-14.2 v -32.34 c 47.65383,18.77638 99.773064,-14.35222 102.999993,-65.47 h 6.83 c 13.22008,0.0166 23.948961,-10.68991 23.96,-23.91 z m -41.300003,18.52 v 0.55 c 0.0353,47.6689 -49.67073,79.0636 -92.69999,58.55 -2.74863,-1.68887 -2.06775,-1.02918 -4.16379,-2.35631 -0.52294,0.006 -2.02826,-1.55355 -2.52621,-1.39369 -18.82623,-11.8646 -30.25028,-32.55702 -30.26,-54.81 v -42.29 c 9.79,-3.16 33.9,-13.69 48.73,-43.53 3.80863,6.25698 8.36185,12.0291 13.55999,17.19 12.08,12 33.4,26.17 67.36,27.53 z m 30.560003,-18.55 c 2e-6,7.28073 -5.89927,13.18448 -13.18,13.19 h -6.66 v -34.71 h 6.66 c 7.276827,0.006 13.174485,5.90317 13.18,13.18 z"
         id="path10-3"
         inkscape:connector-curvature="0" />
      <path
         transform="matrix(-1,0,0,1,-396.19546,-57.124026)"
         clip-path="url(#clipPath899)"
         sodipodi:nodetypes="cccccccccccccccccccccccccccccccccccccccccccscccccs"
         d="m -65.643927,188.58423 v -8.37 c -0.01102,-13.19666 -10.703348,-23.89346 -23.9,-23.91 h -10.1 c -0.622183,-0.24057 -1.282943,-0.36594 -1.950003,-0.37 -63.44,0 -80.91999,-46.62 -81.61999,-48.59 -0.75321,-2.12213 -2.74836,-3.55065 -5,-3.58 v 0 c -2.24231,0.0203 -4.23592,1.43179 -5,3.54 -14.91,40.93 -48.43,48.44 -49.82,48.73 -2.49331,0.51685 -4.28085,2.71368 -4.28,5.26 v 46.39 c 0.0326,26.7103 14.15918,51.42048 37.16,65 v 37.62 c -0.005,2.76021 -0.92612,5.44066 -2.62,7.62 l -4.18,5.38 c -5.42552,7.01698 -6.38378,16.51032 -2.47,24.47 l 40.27,81.33 c 1.96726,3.97972 7.64273,3.97972 9.60999,0 l 40.28,-81.28 c 2.60054,-5.22301 3.11887,-11.23916 1.45,-16.83 -2.2101,-6.45957 -11.89109,-3.63438 -10.28,3 0.88692,2.99075 0.60823,6.20643 -0.78,9 l -35.47,71.61 -35.47999,-71.59 c -2.09872,-4.27184 -1.58273,-9.36579 1.33,-13.13 l 4.18,-5.38 c 3.15779,-4.06043 4.87465,-9.0562 4.88,-14.2 v -32.34 c 47.65383,18.77638 99.773064,-14.35222 102.999993,-65.47 h 6.83 c 13.22008,0.0166 23.948961,-10.68991 23.96,-23.91 z m -41.300003,18.52 v 0.55 c 0.0353,47.6689 -49.67073,79.0636 -92.69999,58.55 -2.74863,-1.68887 -2.06775,-1.02918 -4.16379,-2.35631 -0.52294,0.006 -2.02826,-1.55355 -2.52621,-1.39369 -18.82623,-11.8646 -30.25028,-32.55702 -30.26,-54.81 v -42.29 c 9.79,-3.16 33.9,-13.69 48.73,-43.53 3.80863,6.25698 8.36185,12.0291 13.55999,17.19 12.08,12 33.4,26.17 67.36,27.53 z m 30.560003,-18.55 c 2e-6,7.28073 -5.89927,13.18448 -13.18,13.19 h -6.66 v -34.71 h 6.66 c 7.276827,0.006 13.174485,5.90317 13.18,13.18 z"
         id="path10-3-5"
         inkscape:connector-curvature="0" />
    </g>
    <rect
       style="opacity:1;vector-effect:none;fill:#000000;fill-opacity:1;stroke:none;stroke-width:0.34135196;stroke-linecap:butt;stroke-linejoin:miter;stroke-miterlimit:4;stroke-dasharray:none;stroke-dashoffset:0;stroke-opacity:1;paint-order:markers stroke fill"
       id="rect907"
       width="15.341854"
       height="50.674606"
       x="241.10138"
       y="221.8999" />
    <rect
       style="opacity:1;vector-effect:none;fill:#000000;fill-opacity:1;stroke:none;stroke-width:0.34135196;stroke-linecap:butt;stroke-linejoin:miter;stroke-miterlimit:4;stroke-dasharray:none;stroke-dashoffset:0;stroke-opacity:1;paint-order:markers stroke fill"
       id="rect907-3"
       width="15.341854"
       height="50.674606"
       x="-255.21585"
       y="223.87311"
       transform="rotate(-90)" />
  </g>
</svg>
