<?xml version="1.0" encoding="UTF-8" standalone="no"?>
<!-- Created with Inkscape (http://www.inkscape.org/) -->

<svg
   xmlns:dc="http://purl.org/dc/elements/1.1/"
   xmlns:cc="http://creativecommons.org/ns#"
   xmlns:rdf="http://www.w3.org/1999/02/22-rdf-syntax-ns#"
   xmlns:svg="http://www.w3.org/2000/svg"
   xmlns="http://www.w3.org/2000/svg"
   xmlns:sodipodi="http://sodipodi.sourceforge.net/DTD/sodipodi-0.dtd"
   xmlns:inkscape="http://www.inkscape.org/namespaces/inkscape"
   sodipodi:docname="bookingcare_v.svg"
   viewBox="0 0 40.185581 29.981978"
   height="29.981977"
   width="40.185581"
   id="svg66"
   version="1.1"
   inkscape:version="0.92.3 (2405546, 2018-03-11)">
  <metadata
     id="metadata72">
    <rdf:RDF>
      <cc:Work
         rdf:about="">
        <dc:format>image/svg+xml</dc:format>
        <dc:type
           rdf:resource="http://purl.org/dc/dcmitype/StillImage" />
        <dc:title></dc:title>
      </cc:Work>
    </rdf:RDF>
  </metadata>
  <defs
     id="defs70" />
  <sodipodi:namedview
     inkscape:current-layer="g4910"
     inkscape:window-maximized="1"
     inkscape:window-y="27"
     inkscape:window-x="67"
     inkscape:cy="44.182696"
     inkscape:cx="93.232285"
     inkscape:zoom="2.4042968"
     showgrid="false"
     id="namedview68"
     inkscape:window-height="1025"
     inkscape:window-width="1853"
     inkscape:pageshadow="2"
     inkscape:pageopacity="0"
     guidetolerance="10"
     gridtolerance="10"
     objecttolerance="10"
     borderopacity="1"
     bordercolor="#666666"
     pagecolor="#ffffff"
     inkscape:object-paths="true"
     inkscape:snap-nodes="true"
     inkscape:snap-intersection-paths="true"
     inkscape:snap-smooth-nodes="true"
     inkscape:object-nodes="false"
     showguides="true"
     showborder="true"
     borderlayer="false"
     inkscape:showpageshadow="true"
     inkscape:guide-bbox="true"
     fit-margin-top="0"
     fit-margin-left="0"
     fit-margin-right="0"
     fit-margin-bottom="0"
     inkscape:pagecheckerboard="false">
    <inkscape:grid
       type="xygrid"
       id="grid4901"
       originx="-58.945977"
       originy="-772.36567" />
    <sodipodi:guide
       position="-58.945979,-772.36563"
       orientation="0,382.66666"
       id="guide4912"
       inkscape:locked="false" />
    <sodipodi:guide
       position="323.72068,-772.36563"
       orientation="-317.33334,0"
       id="guide4914"
       inkscape:locked="false" />
    <sodipodi:guide
       position="323.72068,-455.03229"
       orientation="0,-382.66666"
       id="guide4916"
       inkscape:locked="false" />
    <sodipodi:guide
       position="-58.945979,-455.03229"
       orientation="317.33334,0"
       id="guide4918"
       inkscape:locked="false" />
    <sodipodi:guide
       position="-26.56128,-112.42816"
       orientation="1,0"
       id="guide4535"
       inkscape:locked="false" />
    <sodipodi:guide
       position="933.53616,-282.31554"
       orientation="1,0"
       id="guide4537"
       inkscape:locked="false" />
  </sodipodi:namedview>
  <g
     id="g4910"
     transform="matrix(2.5214485,0,0,2.5214485,-28.791048,26.749753)">
    <g
       id="g845"
       transform="matrix(0.15736208,0,0,0.15736208,11.227622,-1.1129094)">
      <path
         inkscape:connector-curvature="0"
         id="path4885"
         d="m 55.604026,-48.133861 c 0.04277,-1.35885 -0.07848,-2.744033 0.163518,-4.08401 0.363267,-1.376473 0.662053,-2.830877 1.55384,-3.979608 1.278763,-2.185234 3.818164,-3.196603 6.171832,-3.748777 3.796612,-0.858669 8.070349,-0.390318 11.240127,1.999886 1.586069,1.241386 2.393399,3.170385 2.949626,5.045747 0.09923,2.419655 0.03795,4.846114 0.02571,7.268093 -0.03802,0.606284 0.179568,1.700522 -0.775075,1.228119 -3.313135,-0.458537 -6.650257,-0.763421 -9.988691,-0.945064 -3.795146,0.17034 -7.544523,0.902004 -11.340896,1.0474 0,-1.277263 0,-2.554524 0,-3.831786 z m 12.020103,-0.787308 c 0.616237,-0.305945 0.30031,-1.125651 0.373103,-1.688188 -0.09189,-0.423152 0.05211,-0.618577 0.491614,-0.528716 0.531668,-0.01872 1.063333,-0.03743 1.594997,-0.05615 -0.01171,-0.672362 0.187174,-1.383806 -0.05244,-2.024946 -0.561473,-0.34385 -1.282727,-0.172594 -1.920471,-0.249454 -0.14442,-0.358513 -0.03705,-0.964028 -0.11398,-1.395883 -0.0053,-1.028104 -1.836737,-0.887736 -2.338159,-0.367129 -0.11114,0.599934 -0.04516,1.216652 -0.0642,1.824339 -0.631339,0.02432 -1.276138,-0.06302 -1.895786,0.07549 -0.480117,0.470059 -0.167036,1.247529 -0.203588,1.865463 -0.100876,0.463954 0.496743,0.221204 0.777499,0.299041 0.440625,0.01551 0.88125,0.03102 1.321875,0.04653 0.03903,0.685256 -0.10468,1.406962 0.131625,2.059919 0.484823,0.460176 1.325456,0.378537 1.897906,0.139678 z"
         style="fill:#45c3d3;fill-opacity:1;stroke:none;stroke-width:0.01264613;stroke-linejoin:round;stroke-miterlimit:4;stroke-dasharray:none;stroke-opacity:1;paint-order:markers stroke fill" />
      <path
         style="fill:#45c3d3;fill-opacity:1;stroke:none;stroke-width:0.01264613;stroke-linejoin:round;stroke-miterlimit:4;stroke-dasharray:none;stroke-opacity:1;paint-order:markers stroke fill"
         d="m 18.487635,-2.975918 c -0.949525,-0.31746 -1.549708,-0.730439 -2.023382,-1.392262 -0.295213,-0.412477 -0.569392,-1.023697 -0.573556,-1.278612 -0.0025,-0.15086 -0.08581,-0.416559 -0.185211,-0.590443 -0.268997,-0.470562 -0.272308,-12.469469 -0.0037,-13.215205 3.44903,-15.778372 27.517986,-12.739895 32.9361,-5.058443 -2.328093,4.562155 -3.083416,10.884032 -3.140821,15.491508 l -0.07323,6.133372 -13.278435,0.01846 c -8.592496,0.01194 -13.412322,-0.02629 -13.657822,-0.108373 z"
         id="path4889"
         inkscape:connector-curvature="0"
         sodipodi:nodetypes="ccccccccscc" />
      <path
         style="fill:#45c3d3;fill-opacity:1;stroke:none;stroke-width:0.01264613;stroke-linejoin:round;stroke-miterlimit:4;stroke-dasharray:none;stroke-opacity:1;paint-order:markers stroke fill"
         d="M 44.348971,15.123638 C 44.035978,15.065268 42.869372,14.955958 41.756514,14.880733 33.810982,14.355759 25.403858,12.368233 18.920255,9.328543 15.208495,7.993481 12.33647,5.616823 9.2453377,3.379775 8.5609013,2.888251 6.5342381,0.884915 5.9080029,0.080857 0.51478878,-7.343065 -0.315726,-14.439275 3.849739,-21.445426 c 0.4861442,-0.898147 0.9261045,-1.598314 1.5198798,-2.322722 2.1876128,-2.482894 3.8643545,-4.43089 6.6163582,-6.398636 0.504514,-0.413705 1.034301,-0.798498 1.565452,-1.109786 0.764578,0.452785 1.68381,1.277037 0.929393,1.896919 -0.693915,0.547952 -1.495265,1.291599 -2.298375,2.132873 -5.3331726,5.560764 -6.5899476,15.713137 -4.2700875,20.75662 0.5313406,1.101928 1.0364266,2.03753 1.1605953,2.149842 0.4902471,0.769843 1.0483512,1.385626 1.5702642,2.086611 0.467621,0.632364 2.704007,2.865323 3.546352,3.540918 0.346883,0.278212 0.659151,0.536953 0.693928,0.574974 1.260202,0.874215 2.35995,1.767941 3.509301,2.453493 0.539042,0.319779 1.065437,0.634888 1.169767,0.700244 0.10433,0.06536 0.445776,0.248964 0.758768,0.408015 0.312992,0.15905 0.59753,0.317691 0.632307,0.352533 1.398574,0.681413 2.563599,1.292878 3.857069,1.829174 0.208662,0.09223 0.550107,0.235858 0.758768,0.319167 7.885268,3.092847 16.506543,4.574518 24.318394,4.761287 2.575679,0.05837 3.633263,0.01131 6.432253,-0.286246 0.537455,-0.05714 0.693936,-0.02636 0.88523,0.174064 0.389381,0.390229 0.584,0.859389 0.810678,1.326093 0.210786,0.394842 0.133112,0.72909 -0.198761,0.855269 -0.830432,0.315728 -12.098055,0.623898 -13.468292,0.368358 z"
         id="path4891"
         inkscape:connector-curvature="0"
         sodipodi:nodetypes="ccccccccccccccccccscccccccccc" />
      <path
         style="fill:#45c3d3;fill-opacity:1;stroke:none;stroke-width:0.01264613;stroke-linejoin:round;stroke-miterlimit:4;stroke-dasharray:none;stroke-opacity:1;paint-order:markers stroke fill"
         d="m 49.324377,-8.226249 c 0.04574,-7.437629 0.112749,-8.893707 0.436233,-9.479034 0.679416,-2.531181 2.475064,-4.888657 4.357496,-6.455228 1.470623,-0.965935 2.529604,-1.905835 4.330176,-2.184068 0.216235,0 0.464239,-0.07114 0.551124,-0.158078 0.204155,-0.204293 13.493539,-0.303776 14.562125,-0.109011 3.110628,0.831281 6.165048,2.202232 8.093521,4.961669 1.050427,1.547711 1.829392,3.249582 2.162265,5.106168 0.202226,1.149353 0.306903,13.072924 0.116442,13.263392 -0.07915,0.619063 -0.135958,1.358758 -0.432371,1.848734 -0.348389,0.47863 -0.853372,0.622002 -1.397585,0.821997 l -16.413345,0.03437 -16.413346,0.03436 z"
         id="path4893"
         inkscape:connector-curvature="0"
         sodipodi:nodetypes="sccccccccccccs" />
      <path
         style="fill:#45c3d3;fill-opacity:1;stroke:none;stroke-width:0.01264613;stroke-linejoin:round;stroke-miterlimit:4;stroke-dasharray:none;stroke-opacity:1;paint-order:markers stroke fill"
         d="m 81.080386,8.456068 c -0.62366,-0.600965 -0.922168,-0.973561 -0.950731,-1.186689 -0.05326,-0.397566 0.02293,-0.607563 0.220511,-0.607563 2.967222,-1.450736 5.904768,-2.77349 8.520282,-4.930929 1.581915,-1.344856 3.152108,-2.783684 4.415106,-4.458822 2.588218,-3.102572 4.109821,-7.276465 4.11393,-11.033747 0,-1.591727 -0.04373,-2.244156 -0.158074,-2.358503 -1.185125,-4.925411 -3.177243,-8.430076 -7.434692,-12.058085 -2.662025,-2.627413 -6.242343,-3.812828 -9.25875,-5.808881 0.309577,-0.975763 0.881027,-1.241064 1.6171,-1.727275 4.839858,1.008988 10.02094,4.531984 13.458905,7.410811 4.725157,4.014961 5.355627,6.705855 6.770887,12.26604 0.60913,4.737454 -1.71842,10.867976 -5.080779,13.973563 -0.05743,0 -0.104355,0.05655 -0.104355,0.125676 -1.320987,1.433407 -2.914103,2.861423 -4.268063,4.105148 -1.355587,1.02188 -2.63525,1.937685 -4.015151,2.853873 -2.11941,1.182928 -6.671301,4.388318 -7.846192,3.435383 z"
         id="path4895"
         inkscape:connector-curvature="0"
         sodipodi:nodetypes="cccccccccccccccccc" />
      <path
         style="fill:#45c3d3;fill-opacity:1;stroke:none;stroke-width:0.01264613;stroke-linejoin:round;stroke-miterlimit:4;stroke-dasharray:none;stroke-opacity:1;paint-order:markers stroke fill"
         d="m 67.124058,-28.702317 c -6.381562,-0.01842 -11.552026,-4.406156 -11.514399,-8.798305 -0.01237,-1.66221 0.01338,-2.684811 0.04431,-4.460023 0.347359,-0.75723 6.042383,-1.58615 11.444978,-1.504009 3.907775,-0.08214 10.325707,0.869404 10.572481,1.546001 0.0397,0.147843 -0.02029,3.452415 -0.01985,4.495721 -0.170279,6.246021 -4.140609,8.702192 -10.527556,8.720615 z"
         id="path4897"
         inkscape:connector-curvature="0"
         sodipodi:nodetypes="ccccccc" />
      <circle
         style="fill:#45c3d3;fill-opacity:1;stroke:none;stroke-width:0.02660106;stroke-linejoin:round;stroke-miterlimit:4;stroke-dasharray:none;stroke-opacity:1;paint-order:markers stroke fill"
         id="path4899"
         cx="32.969681"
         cy="-43.211075"
         r="10.464673" />
    </g>
  </g>
</svg>
