<?xml version="1.0" ?><svg viewBox="0 0 438.87 343.68" xmlns="http://www.w3.org/2000/svg"><title/><g data-name="Layer 2" id="Layer_2"><g data-name="aid, medical, emergency, health, first, medicine, help, doctor, hospital" id="aid_medical_emergency_health_first_medicine_help_doctor_hospital"><path d="M438.87,338.32V98.22a32,32,0,0,0-31.93-31.93H405.7V60.57a18.79,18.79,0,0,0-18.77-18.78H342.69a18.63,18.63,0,0,0-13.28,5.5A5.36,5.36,0,0,0,337,54.87a8,8,0,0,1,5.7-2.36h44.24A8.06,8.06,0,0,1,395,60.57v5.72H294.42V29.64A29.67,29.67,0,0,0,264.79,0H181.51a29.67,29.67,0,0,0-29.63,29.64V66.29H122.39V60.57a18.8,18.8,0,0,0-18.78-18.78H59.37a18.79,18.79,0,0,0-15.39,8A5.36,5.36,0,1,0,52.76,56a8.07,8.07,0,0,1,6.61-3.45h44.24a8.06,8.06,0,0,1,8.06,8.06v5.72H31.93A32,32,0,0,0,0,98.22v240.1a5.36,5.36,0,0,0,5.36,5.36H433.51A5.36,5.36,0,0,0,438.87,338.32ZM162.6,29.64a18.94,18.94,0,0,1,18.91-18.92h83.28A18.94,18.94,0,0,1,283.7,29.64V66.29H162.6ZM428.15,333H10.72V98.22A21.23,21.23,0,0,1,31.93,77h375a21.23,21.23,0,0,1,21.21,21.21Z"/><path d="M247.89,27.88H198.41a17.08,17.08,0,0,0-17.07,17.06v7.57a5.36,5.36,0,0,0,10.72,0V44.94a6.35,6.35,0,0,1,6.35-6.34h49.48a6.35,6.35,0,0,1,6.35,6.34v7.57a5.36,5.36,0,1,0,10.72,0V44.94A17.08,17.08,0,0,0,247.89,27.88Z"/><path d="M282.7,181.62H254V152.87a5.36,5.36,0,0,0-5.36-5.36H197.7a5.36,5.36,0,0,0-5.36,5.36v28.75H163.6a5.37,5.37,0,0,0-5.37,5.36v50.89a5.37,5.37,0,0,0,5.37,5.36h28.74V272a5.36,5.36,0,0,0,5.36,5.36h50.9A5.36,5.36,0,0,0,254,272V243.23H282.7a5.36,5.36,0,0,0,5.36-5.36V187A5.36,5.36,0,0,0,282.7,181.62Zm-5.36,50.89H248.6a5.36,5.36,0,0,0-5.36,5.36v28.75H203.06V237.87a5.36,5.36,0,0,0-5.36-5.36H169V192.34H197.7a5.36,5.36,0,0,0,5.36-5.36V158.23h40.18V187a5.36,5.36,0,0,0,5.36,5.36h28.74Z"/></g></g></svg>