<?xml version="1.0" ?><svg viewBox="0 0 365.45 438.87" xmlns="http://www.w3.org/2000/svg"><title/><g data-name="Layer 2" id="Layer_2"><g data-name="defibrillator, heart, emergency, medical, cardiac, life, rescue, help, equipment, aid" id="defibrillator_heart_emergency_medical_cardiac_life_rescue_help_equipment_aid"><path d="M323.62,163.43V26a26.06,26.06,0,0,0-26-26H67.84a26.06,26.06,0,0,0-26,26v137.4a26.06,26.06,0,0,0,26,26H297.59A26.06,26.06,0,0,0,323.62,163.43Zm-271.09,0V26A15.33,15.33,0,0,1,67.84,10.72H297.59A15.33,15.33,0,0,1,312.9,26v137.4a15.33,15.33,0,0,1-15.31,15.31H67.84A15.33,15.33,0,0,1,52.53,163.43Z"/><path d="M190.31,40.11a5.36,5.36,0,1,0,0,10.72,14.53,14.53,0,0,1,14.51,14.52v58.76a14.53,14.53,0,0,1-14.51,14.52H104.58a14.53,14.53,0,0,1-14.52-14.52V65.35a14.53,14.53,0,0,1,14.52-14.52h56.29a5.36,5.36,0,1,0,0-10.72H104.58A25.27,25.27,0,0,0,79.34,65.35v58.76a25.27,25.27,0,0,0,25.24,25.24h85.73a25.26,25.26,0,0,0,25.23-25.24V65.35A25.26,25.26,0,0,0,190.31,40.11Z"/><path d="M162.8,108.06a5.36,5.36,0,0,0-9.28,5.37L159.6,124a5.37,5.37,0,0,0,4.64,2.68h.21a5.37,5.37,0,0,0,4.63-3l11.24-23.5h10.34a5.36,5.36,0,1,0,0-10.72H176.94a5.36,5.36,0,0,0-4.83,3l-8.31,17.37Z"/><path d="M144.26,97.41a5.36,5.36,0,1,0,9.28-5.36l-1.46-2.53a5.36,5.36,0,1,0-9.28,5.37Z"/><path d="M136.89,63.23a5.36,5.36,0,0,0-9.8,1.23l-7,24.91H104.82a5.36,5.36,0,1,0,0,10.72h19.3a5.36,5.36,0,0,0,5.16-3.9L134,79.57A5.36,5.36,0,0,0,143,73.84Z"/><path d="M282.66,40.11H252.42a5.36,5.36,0,1,0,0,10.72h30.24a5.36,5.36,0,0,0,0-10.72Z"/><path d="M282.66,66.91H252.42a5.36,5.36,0,1,0,0,10.72h30.24a5.36,5.36,0,0,0,0-10.72Z"/><path d="M282.66,93.72H252.42a5.36,5.36,0,1,0,0,10.72h30.24a5.36,5.36,0,0,0,0-10.72Z"/><path d="M0,340.12V380a23.54,23.54,0,0,0,12.26,20.66l29.79,16.28a25.3,25.3,0,0,0,25,22h23a25.32,25.32,0,0,0,25.29-25.29V331.21a25.31,25.31,0,0,0-25.29-25.28h-23a25.31,25.31,0,0,0-25.28,25.28v73.33L17.4,391.2A12.81,12.81,0,0,1,10.72,380V340.12a5,5,0,0,1,10.07,0l.09,28.78a15.06,15.06,0,0,0,7.32,12.83,5.36,5.36,0,1,0,5.49-9.2,4.31,4.31,0,0,1-2.09-3.66l-.09-28.78a15.76,15.76,0,0,0-31.51,0Zm52.53-8.91a14.57,14.57,0,0,1,14.56-14.56h23a14.58,14.58,0,0,1,14.57,14.56v82.37a14.58,14.58,0,0,1-14.57,14.56h-23a14.57,14.57,0,0,1-14.56-14.56Z"/><path d="M58.41,226.13h66a19.38,19.38,0,0,0,19.37-19.36,5.36,5.36,0,0,0-10.72,0,8.65,8.65,0,0,1-8.65,8.64h-66a32.08,32.08,0,0,0,0,64.15H62a11.23,11.23,0,0,1,11.22,11.21,5.36,5.36,0,0,0,10.72,0A22,22,0,0,0,62,268.84H58.41a21.36,21.36,0,0,1,0-42.71Z"/><path d="M365.45,380V340.12a15.76,15.76,0,0,0-31.51,0l-.09,28.78a4.29,4.29,0,0,1-2.09,3.66,5.36,5.36,0,0,0,5.49,9.2,15,15,0,0,0,7.32-12.83l.09-28.78a5,5,0,0,1,10.07,0V380a12.81,12.81,0,0,1-6.68,11.25l-24.4,13.34V331.21a25.32,25.32,0,0,0-25.29-25.28h-23a25.32,25.32,0,0,0-25.29,25.28v82.37a25.33,25.33,0,0,0,25.29,25.29h23a25.3,25.3,0,0,0,25-22l29.8-16.28A23.53,23.53,0,0,0,365.45,380Zm-52.53,33.63a14.57,14.57,0,0,1-14.56,14.56h-23a14.58,14.58,0,0,1-14.57-14.56V331.21a14.58,14.58,0,0,1,14.57-14.56h23a14.57,14.57,0,0,1,14.56,14.56Z"/><path d="M241.08,226.13h66a21.36,21.36,0,0,1,0,42.71h-3.59a22,22,0,0,0-21.94,21.93,5.37,5.37,0,0,0,10.73,0,11.22,11.22,0,0,1,11.21-11.21H307a32.08,32.08,0,0,0,0-64.15h-66a8.64,8.64,0,0,1-8.64-8.64,5.37,5.37,0,0,0-10.73,0A19.38,19.38,0,0,0,241.08,226.13Z"/></g></g></svg>